<?xml version="1.0" encoding="UTF-8" standalone="no"?>
<!DOCTYPE svg PUBLIC "-//W3C//DTD SVG 1.1//EN" "http://www.w3.org/Graphics/SVG/1.1/DTD/svg11.dtd">
<svg width="100%" height="100%" viewBox="0 0 644 287" version="1.1" xmlns="http://www.w3.org/2000/svg" xmlns:xlink="http://www.w3.org/1999/xlink" xml:space="preserve" xmlns:serif="http://www.serif.com/" style="fill-rule:evenodd;clip-rule:evenodd;stroke-linejoin:round;stroke-miterlimit:2;">
    <g>
        <g transform="matrix(1,0,0,1,277,154)">
            <path d="M0,-121.312L-22.182,-121.312C-51.766,-121.312 -66.553,-106.516 -66.553,-76.932L-66.553,-1.551L-44.372,-1.551L-44.372,-76.932C-44.372,-91.728 -36.978,-99.13 -22.182,-99.13L0,-99.13C14.796,-99.13 22.182,-91.728 22.182,-76.932L22.182,-8.162C30.926,-6.953 38.353,-4.226 44.372,0L44.372,-76.932C44.372,-106.516 29.576,-121.312 0,-121.312" style="fill:white;fill-rule:nonzero;"/>
        </g>
        <g transform="matrix(1,0,0,1,377,55)">
            <path d="M0,66.553C-14.796,66.553 -22.182,59.168 -22.182,44.371L-22.182,-22.19L-44.38,-22.19L-44.38,44.371C-44.38,73.948 -29.584,88.743 0,88.743L66.637,88.743C66.637,80.949 67.854,73.564 70.271,66.553L0,66.553Z" style="fill:white;fill-rule:nonzero;"/>
        </g>
        <g transform="matrix(1,0,0,1,543,144)">
            <path d="M0,-110.934C0,-96.138 -11,-81 -33.276,-67.946C-55.467,-81.808 -66.562,-96.138 -66.562,-110.934L-88.743,-110.934C-88.743,-88.744 -76.898,-70.255 -53.216,-55.467C-76.898,-40.671 -88.743,-22.191 -88.743,0L-66.562,0C-66.562,-14.788 -55.467,-29.118 -33.276,-42.989L-13.346,-55.467C10.336,-70.255 22.182,-88.744 22.182,-110.934L0,-110.934Z" style="fill:white;fill-rule:nonzero;"/>
        </g>
        <g transform="matrix(1,0,0,1,210,264)">
            <path d="M0,-110.926L0,-44.38C0,-29 -7,-22 -22.182,-22.191L-44.38,-22.191C-59.168,-22.191 -66.562,-29.584 -66.562,-44.38L-66.562,-109.8L-77.648,-109.8C-81.542,-109.8 -85.243,-110.033 -88.744,-110.509L-88.744,-44.38C-88.744,-14.788 -73.948,0 -44.38,0L-22.182,0C7.394,0 22.181,-14.788 22.181,-44.38L22.181,-110.926L0,-110.926Z" style="fill:white;fill-rule:nonzero;"/>
        </g>
        <g transform="matrix(1,0,0,1,177.487,44.372)">
            <path d="M0,55.649C0,70.437 -7.402,77.831 -22.189,77.831L-44.371,77.831C-59.167,77.831 -66.561,70.437 -66.561,55.649L-66.561,0C-66.561,-14.797 -59.167,-22.191 -44.371,-22.191L-22.189,-22.191C-7.402,-22.191 0,-14.797 0,0L0,55.649ZM-22.189,-44.372L-44.371,-44.372C-73.955,-44.372 -88.743,-29.584 -88.743,0L-88.743,55.649C-88.743,85.233 -73.955,100.021 -44.371,100.021L-22.189,100.021C7.394,100.021 22.182,85.233 22.182,55.649L22.182,0C22.182,-29.584 7.394,-44.372 -22.189,-44.372" style="fill:white;fill-rule:nonzero;"/>
        </g>
        <g transform="matrix(1,0,0,1,476.985,286.327)">
            <path d="M0,-133.107L-22.181,-133.107C-51.765,-133.107 -66.553,-118.319 -66.553,-88.743L-66.553,0L-44.372,-22.181L-44.372,-88.743C-44.372,-103.531 -36.978,-110.925 -22.181,-110.925L0,-110.925C14.796,-110.925 22.19,-103.531 22.19,-88.743L0,-88.743L-22.181,-66.553L22.19,-66.553L22.19,-22.181L44.372,-22.181L44.372,-88.743C44.372,-118.319 29.584,-133.107 0,-133.107" style="fill:white;fill-rule:nonzero;"/>
        </g>
        <g transform="matrix(1,0,0,1,354.965,264.146)">
            <path d="M0,-110.926C-14.788,-110.926 -25.882,-107.233 -33.276,-99.839C-40.67,-107.233 -51.766,-110.926 -66.553,-110.926C-96.137,-110.926 -110.925,-96.138 -110.925,-66.562L-110.925,0L-88.743,0L-88.743,-66.562C-88.743,-81.35 -81.349,-88.744 -66.553,-88.744C-51.766,-88.744 -44.372,-81.35 -44.372,-66.562L-44.372,0L-22.181,0L-22.181,-66.562C-22.181,-81.35 -14.788,-88.744 0,-88.744C14.796,-88.744 22.19,-81.35 22.19,-66.562L22.19,0L44.372,0L44.372,-66.562C44.372,-96.138 29.584,-110.926 0,-110.926" style="fill:white;fill-rule:nonzero;"/>
        </g>
        <g transform="matrix(1,0,0,1,88.7437,264.145)">
            <path d="M0,-128.563L0,-66.561L-44.363,-66.561L-66.562,-44.379L0,-44.379L0,0L22.182,0L22.182,-112.992C12.788,-116.051 5.343,-121.294 0,-128.563" style="fill:white;fill-rule:nonzero;"/>
        </g>
        <g transform="matrix(0,1,1,0,89.2285,197.099)">
            <path d="M-67.047,-89.228L89.228,-89.228L67.048,-67.046L-67.047,-67.046L-67.047,-89.228Z" style="fill:white;fill-rule:nonzero;"/>
        </g>
        <g transform="matrix(1,0,0,1,554.643,219.884)">
            <path d="M0,-22.3C0,-37.088 7.385,-44.483 22.182,-44.483L44.364,-44.483C59.16,-44.483 66.553,-37.088 66.553,-22.3L66.553,44.364L88.735,44.364L88.735,-22.3C88.735,-51.876 73.947,-66.664 44.364,-66.664L22.182,-66.664C-7.402,-66.664 -22.19,-51.876 -22.19,-22.3L-22.19,44.262L0,44.262L0,-22.3Z" style="fill:white;fill-rule:nonzero;"/>
        </g>
    </g>
</svg>
