<?xml version="1.0" encoding="UTF-8" standalone="no"?>
<!DOCTYPE svg PUBLIC "-//W3C//DTD SVG 1.1//EN" "http://www.w3.org/Graphics/SVG/1.1/DTD/svg11.dtd">
<svg width="100%" height="100%" viewBox="0 0 1200 520" version="1.1" xmlns="http://www.w3.org/2000/svg" xmlns:xlink="http://www.w3.org/1999/xlink" xml:space="preserve" xmlns:serif="http://www.serif.com/" style="fill-rule:evenodd;clip-rule:evenodd;stroke-linejoin:round;stroke-miterlimit:2;">
    <g id="Artboard" transform="matrix(1.0525,0,0,1.02482,-98.7603,-0.956525)">
        <rect x="93.834" y="0.933" width="1140.14" height="507.405" style="fill:none;"/>
        <g id="Title" transform="matrix(1.67908,0,0,1.72443,-1016.6,-2097.64)">
            <g transform="matrix(1,0,0,1,1055.47,1276.01)">
                <path d="M0,66.553C-14.796,66.553 -22.182,59.168 -22.182,44.371L-22.182,-22.19L-44.38,-22.19L-44.38,44.371C-44.38,73.948 -29.584,88.743 0,88.743L66.637,88.743C66.637,80.949 67.854,73.564 70.271,66.553L0,66.553Z" style="fill:white;fill-rule:nonzero;"/>
            </g>
            <g transform="matrix(1,0,0,1,1221.86,1364.75)">
                <path d="M0,-110.934C0,-96.138 -11.095,-81.808 -33.276,-67.946C-55.467,-81.808 -66.562,-96.138 -66.562,-110.934L-88.743,-110.934C-88.743,-88.744 -76.898,-70.255 -53.216,-55.467C-76.898,-40.671 -88.743,-22.191 -88.743,0L-66.562,0C-66.562,-14.788 -55.467,-29.118 -33.276,-42.989L-13.346,-55.467C10.336,-70.255 22.182,-88.744 22.182,-110.934L0,-110.934Z" style="fill:white;fill-rule:nonzero;"/>
            </g>
            <g transform="matrix(0.564297,0,0,0.564297,625.361,1140.05)">
                <path d="M467.333,413.836L467.332,413.836L467.332,531.763C467.332,557.984 454.213,571.085 428.023,571.085L388.686,571.085C362.48,571.085 349.377,557.984 349.377,531.763L349.377,415.832L329.731,415.832C322.83,415.832 316.272,415.419 310.068,414.575L310.068,531.763C310.068,584.204 336.288,610.41 388.686,610.41L428.023,610.41C480.435,610.41 506.64,584.204 506.64,531.763L506.64,413.836L506.64,413.836L506.64,280.253C506.64,254.032 519.743,240.915 545.963,240.915L585.272,240.915C611.493,240.915 624.581,254.032 624.581,280.253L624.581,402.121C640.077,404.263 653.238,409.096 663.905,416.585L663.905,280.253C663.905,227.826 637.684,201.606 585.272,201.606L545.963,201.606C493.537,201.606 467.333,227.826 467.333,280.253L467.333,413.836Z" style="fill:white;fill-rule:nonzero;"/>
            </g>
            <g transform="matrix(1,0,0,1,855.798,1264.73)">
                <path d="M0,55.649C0,70.437 -7.402,77.831 -22.189,77.831L-44.371,77.831C-59.167,77.831 -66.561,70.437 -66.561,55.649L-66.561,0C-66.561,-14.797 -59.167,-22.191 -44.371,-22.191L-22.189,-22.191C-7.402,-22.191 0,-14.797 0,0L0,55.649ZM-22.189,-44.372L-44.371,-44.372C-73.955,-44.372 -88.743,-29.584 -88.743,0L-88.743,55.649C-88.743,85.233 -73.955,100.021 -44.371,100.021L-22.189,100.021C7.394,100.021 22.182,85.233 22.182,55.649L22.182,0C22.182,-29.584 7.394,-44.372 -22.189,-44.372" style="fill:white;fill-rule:nonzero;"/>
            </g>
            <g transform="matrix(1,0,0,1,1155.3,1506.69)">
                <path d="M0,-133.107L-22.181,-133.107C-51.765,-133.107 -66.553,-118.319 -66.553,-88.743L-66.553,0L-44.372,-22.181L-44.372,-88.743C-44.372,-103.531 -36.978,-110.925 -22.181,-110.925L0,-110.925C14.796,-110.925 22.19,-103.531 22.19,-88.743L0,-88.743L-22.181,-66.553L22.19,-66.553L22.19,-22.181L44.372,-22.181L44.372,-88.743C44.372,-118.319 29.584,-133.107 0,-133.107" style="fill:white;fill-rule:nonzero;"/>
            </g>
            <g transform="matrix(1,0,0,1,1033.28,1484.51)">
                <path d="M0,-110.926C-14.788,-110.926 -25.882,-107.233 -33.276,-99.839C-40.67,-107.233 -51.766,-110.926 -66.553,-110.926C-96.137,-110.926 -110.925,-96.138 -110.925,-66.562L-110.925,0L-88.743,0L-88.743,-66.562C-88.743,-81.35 -81.349,-88.744 -66.553,-88.744C-51.766,-88.744 -44.372,-81.35 -44.372,-66.562L-44.372,0L-22.181,0L-22.181,-66.562C-22.181,-81.35 -14.788,-88.744 0,-88.744C14.796,-88.744 22.19,-81.35 22.19,-66.562L22.19,0L44.372,0L44.372,-66.562C44.372,-96.138 29.584,-110.926 0,-110.926" style="fill:white;fill-rule:nonzero;"/>
            </g>
            <g transform="matrix(1,0,0,1,767.055,1484.51)">
                <path d="M0,-128.563L0,-66.561L-44.363,-66.561L-66.562,-44.379L0,-44.379L0,0L22.182,0L22.182,-112.992C12.788,-116.051 5.343,-121.294 0,-128.563" style="fill:white;fill-rule:nonzero;"/>
            </g>
            <g transform="matrix(0,1,1,0,767.539,1417.46)">
                <path d="M-67.047,-89.228L89.228,-89.228L67.048,-67.046L-67.047,-67.046L-67.047,-89.228Z" style="fill:white;fill-rule:nonzero;"/>
            </g>
            <g transform="matrix(1,0,0,1,1232.95,1440.24)">
                <path d="M0,-22.3C0,-37.088 7.385,-44.483 22.182,-44.483L44.364,-44.483C59.16,-44.483 66.553,-37.088 66.553,-22.3L66.553,44.364L88.735,44.364L88.735,-22.3C88.735,-51.876 73.947,-66.664 44.364,-66.664L22.182,-66.664C-7.402,-66.664 -22.19,-51.876 -22.19,-22.3L-22.19,44.262L0,44.262L0,-22.3Z" style="fill:white;fill-rule:nonzero;"/>
            </g>
        </g>
    </g>
</svg>
